<?xml version="1.0" encoding="UTF-8"?>
<svg width="64px" height="64px" viewBox="0 0 64 64" version="1.1" xmlns="http://www.w3.org/2000/svg">
    <g stroke="none" stroke-width="1" fill="none" fill-rule="evenodd">
        <rect fill="#12344D" x="0" y="0" width="64" height="64" rx="8"/>
        <path d="M32,16 C40.8365564,16 48,23.1634436 48,32 C48,40.8365564 40.8365564,48 32,48 C23.1634436,48 16,40.8365564 16,32 C16,23.1634436 23.1634436,16 32,16 Z M32,20 C25.372583,20 20,25.372583 20,32 C20,38.627417 25.372583,44 32,44 C38.627417,44 44,38.627417 44,32 C44,25.372583 38.627417,20 32,20 Z M36,28 L36,36 L28,36 L28,28 L36,28 Z" fill="#FFFFFF"/>
    </g>
</svg> 